<svg id="Layer_1" data-name="Layer 1" xmlns="http://www.w3.org/2000/svg" viewBox="0 0 131.17 118.67"><defs><style>.cls-1,.cls-3{fill:#1d2e5b;}.cls-2{fill:none;}.cls-2,.cls-3{stroke:#eae723;stroke-linecap:round;stroke-linejoin:round;stroke-width:2.5px;}</style></defs><title>logo1</title><rect class="cls-1" width="131.17" height="118.67"/><line class="cls-2" x1="63.77" y1="53.61" x2="63.77" y2="88.41"/><path class="cls-3" d="M57.93,18.52c-8.32,9.61-8.53,39.5,0,49.36C66.26,58.27,66.47,28.37,57.93,18.52Z" transform="translate(5.83 6.67)"/><path class="cls-3" d="M83.71,30.36c-11.34,3-27.11,25.57-25.77,37.52C69.29,64.92,85.05,42.31,83.71,30.36Z" transform="translate(5.83 6.67)"/><path class="cls-3" d="M92.91,54.13c-8.82-3.9-29.71,5.37-35,13.75C66.76,71.78,87.65,62.5,92.91,54.13Z" transform="translate(5.83 6.67)"/><path class="cls-3" d="M83.79,77.91c-3.94-6-19.2-13.15-25.85-10C61.88,73.86,77.14,81,83.79,77.91Z" transform="translate(5.83 6.67)"/><path class="cls-3" d="M32.18,30.36c11.34,3,27.11,25.57,25.76,37.52C46.6,64.92,30.83,42.31,32.18,30.36Z" transform="translate(5.83 6.67)"/><path class="cls-3" d="M23,54.13c8.81-3.9,29.73,5.37,35,13.75C49.13,71.78,28.21,62.5,23,54.13Z" transform="translate(5.83 6.67)"/><path class="cls-3" d="M31.17,77.48c3.94-6,20.12-12.72,26.77-9.6C54,73.86,37.83,80.6,31.17,77.48Z" transform="translate(5.83 6.67)"/></svg>